<?xml version="1.0" encoding="UTF-8"?>
<!DOCTYPE svg PUBLIC "-//W3C//DTD SVG 1.1//EN" "http://www.w3.org/Graphics/SVG/1.1/DTD/svg11.dtd">
<!-- Creator: CorelDRAW X7 -->
<svg xmlns="http://www.w3.org/2000/svg" xml:space="preserve" width="270.933mm" height="203.2mm" version="1.1" style="shape-rendering:geometricPrecision; text-rendering:geometricPrecision; image-rendering:optimizeQuality; fill-rule:evenodd; clip-rule:evenodd"
viewBox="0 0 27093 20320"
 xmlns:xlink="http://www.w3.org/1999/xlink">
 <defs>
  <style type="text/css">
   <![CDATA[
    .fil0 {fill:white;fill-rule:nonzero}
   ]]>
  </style>
 </defs>
 <g id="Layer_x0020_1">
  <metadata id="CorelCorpID_0Corel-Layer"/>
  <g id="_1424832126512">
   <path class="fil0" d="M11561 9776l70 0 0 168 94 0 0 72 -94 0 0 552 -70 0 0 -792zm351 349l0 443 -70 0 0 -792 70 0 0 230c58,-57 129,-86 210,-86 85,0 157,30 216,91 59,61 89,135 89,221l0 336 -70 0 0 -336c0,-67 -23,-123 -69,-170 -45,-47 -101,-70 -166,-70 -64,0 -120,23 -165,70 -19,19 -34,40 -45,63zm749 -181l0 624 -70 0 0 -624 70 0zm0 -192l0 96 -70 0 0 -96 70 0zm257 373l0 443 -70 0 0 -624 70 0 0 62c59,-57 129,-86 211,-86 84,0 156,30 215,91 60,61 89,135 89,221l0 336 -70 0 0 -336c0,-67 -23,-123 -68,-170 -46,-47 -101,-70 -166,-70 -65,0 -120,23 -166,70 -18,19 -33,40 -45,63zm750 -349l0 792 -71 0 0 -792 71 0zm350 168l-221 312 221 312 -87 0 -221 -312 221 -312 87 0z"/>
   <path class="fil0" d="M14078 10399l-1 169 -18 0 0 -169 19 0zm0 -52l0 26 -18 0 0 -26 18 0zm66 101l0 120 -19 0 1 -169 18 0 0 17c15,-16 33,-24 54,-24 22,0 41,8 56,25 15,16 23,36 23,60l-1 91 -18 0 1 -91c0,-18 -6,-34 -18,-46 -12,-13 -26,-19 -43,-19 -16,0 -31,6 -42,19 -5,5 -9,11 -12,17z"/>
   <path class="fil0" d="M14776 10421l47 40c-6,7 -12,14 -19,21 -56,58 -123,86 -202,86 -78,0 -145,-28 -201,-85 -55,-57 -83,-126 -83,-206 0,-81 28,-150 83,-207 56,-57 123,-85 201,-85 79,0 146,28 202,85 7,8 13,15 19,22l-47 40c-5,-6 -10,-12 -15,-18 -44,-44 -97,-67 -159,-67 -61,0 -114,23 -158,68 -43,44 -65,98 -65,162 0,63 22,117 65,162 44,44 97,67 158,67 62,0 115,-23 159,-68 5,-5 10,-11 15,-17zm726 -144c0,80 -28,149 -84,206 -55,57 -122,85 -201,85 -78,0 -145,-28 -201,-85 -55,-57 -83,-126 -83,-206 0,-81 28,-150 83,-207 56,-57 123,-85 201,-85 79,0 146,28 201,85 56,57 84,126 84,207zm-285 -230c-61,0 -114,23 -158,68 -43,44 -65,98 -65,162 0,63 22,117 65,162 44,44 97,67 158,67 62,0 115,-23 158,-67 44,-45 66,-99 66,-162 0,-64 -22,-118 -66,-162 -43,-45 -96,-68 -158,-68zm494 -41l0 541 -61 0 0 -541 61 0zm0 -167l0 83 -61 0 0 -83 61 0zm249 324l0 384 -61 0 0 -541 61 0 0 54c51,-50 112,-75 183,-75 73,0 135,26 187,79 51,53 77,117 77,192l0 291 -61 0 0 -291c0,-58 -20,-107 -59,-148 -40,-40 -88,-61 -144,-61 -56,0 -104,21 -144,61 -16,17 -29,35 -39,55z"/>
  </g>
 </g>
</svg>
